<mxfile host="app.diagrams.net" modified="2023-06-03T04:45:14.134Z" agent="Mozilla/5.0 (Windows NT 10.0; Win64; x64) AppleWebKit/537.36 (KHTML, like Gecko) Chrome/113.0.0.0 Safari/537.36" etag="_HowDQHtoFiIreMfrqeh" version="21.3.6" type="github">
  <diagram id="WjzMCz5cW0PldS_9bLKK" name="Page-1">
    <mxGraphModel dx="1434" dy="796" grid="1" gridSize="20" guides="1" tooltips="1" connect="1" arrows="1" fold="1" page="1" pageScale="1" pageWidth="850" pageHeight="1100" background="#004970" math="0" shadow="0">
      <root>
        <mxCell id="0" />
        <mxCell id="1" parent="0" />
        <mxCell id="rk5oXhjm5HisSccfo7RU-9" value="ticks &amp;gt;= timeout" style="edgeStyle=orthogonalEdgeStyle;rounded=1;orthogonalLoop=1;jettySize=auto;html=1;entryX=0.5;entryY=0;entryDx=0;entryDy=0;horizontal=1;exitX=0.5;exitY=1;exitDx=0;exitDy=0;strokeWidth=2;sketch=1;curveFitting=1;jiggle=2;fillColor=#f5f5f5;strokeColor=#999999;" parent="1" source="rk5oXhjm5HisSccfo7RU-2" target="rk5oXhjm5HisSccfo7RU-7" edge="1">
          <mxGeometry relative="1" as="geometry">
            <mxPoint x="600" y="400" as="sourcePoint" />
          </mxGeometry>
        </mxCell>
        <mxCell id="jqnOy9VGXWSSoWR_YB4v-8" style="edgeStyle=orthogonalEdgeStyle;rounded=1;orthogonalLoop=1;jettySize=auto;html=1;entryX=0;entryY=0.5;entryDx=0;entryDy=0;strokeWidth=2;sketch=1;curveFitting=1;jiggle=2;fillColor=#f5f5f5;strokeColor=#999999;" parent="1" source="rk5oXhjm5HisSccfo7RU-2" target="jqnOy9VGXWSSoWR_YB4v-7" edge="1">
          <mxGeometry relative="1" as="geometry" />
        </mxCell>
        <mxCell id="jqnOy9VGXWSSoWR_YB4v-9" value="setting != lastSetting &amp;amp;&amp;amp; setting == 2 or 5" style="edgeLabel;html=1;align=center;verticalAlign=middle;resizable=0;points=[];" parent="jqnOy9VGXWSSoWR_YB4v-8" vertex="1" connectable="0">
          <mxGeometry x="-0.3167" y="-1" relative="1" as="geometry">
            <mxPoint x="55" y="-1" as="offset" />
          </mxGeometry>
        </mxCell>
        <mxCell id="rk5oXhjm5HisSccfo7RU-2" value="idle&lt;br&gt;---&lt;br&gt;lastSetting = setting&lt;br&gt;setting = Console.Setting&lt;br&gt;dbSetting = setting&lt;br&gt;ticks++&lt;br&gt;yield" style="shape=process;whiteSpace=wrap;html=1;backgroundOutline=1;fillColor=#1E2224;fontStyle=1;fontColor=#FFFFFF;strokeColor=#FFFFFF;sketch=1;curveFitting=1;jiggle=2;strokeWidth=2;gradientColor=none;fillStyle=zigzag;" parent="1" vertex="1">
          <mxGeometry x="460" y="200" width="200" height="160" as="geometry" />
        </mxCell>
        <mxCell id="jqnOy9VGXWSSoWR_YB4v-13" style="edgeStyle=orthogonalEdgeStyle;rounded=1;orthogonalLoop=1;jettySize=auto;html=1;entryX=0.25;entryY=0;entryDx=0;entryDy=0;strokeWidth=2;sketch=1;curveFitting=1;jiggle=2;fillColor=#f5f5f5;strokeColor=#999999;" parent="1" source="rk5oXhjm5HisSccfo7RU-4" target="jqnOy9VGXWSSoWR_YB4v-15" edge="1">
          <mxGeometry relative="1" as="geometry" />
        </mxCell>
        <mxCell id="rk5oXhjm5HisSccfo7RU-4" value="intopen&lt;br&gt;---&lt;br&gt;devVent = INTVENT&lt;br&gt;devSensor = INTSENSOR" style="shape=process;whiteSpace=wrap;html=1;backgroundOutline=1;fillColor=#1E2224;fontStyle=1;fontColor=#FFFFFF;strokeColor=#FFFFFF;sketch=1;curveFitting=1;jiggle=2;strokeWidth=2;gradientColor=none;fillStyle=zigzag;" parent="1" vertex="1">
          <mxGeometry x="780" y="400" width="200" height="80" as="geometry" />
        </mxCell>
        <mxCell id="rk5oXhjm5HisSccfo7RU-10" value="Console.On == 1" style="edgeStyle=orthogonalEdgeStyle;rounded=1;orthogonalLoop=1;jettySize=auto;html=1;exitX=0;exitY=0.5;exitDx=0;exitDy=0;horizontal=1;entryX=0.5;entryY=1;entryDx=0;entryDy=0;strokeWidth=2;sketch=1;curveFitting=1;jiggle=2;fillColor=#f5f5f5;strokeColor=#999999;" parent="1" source="rk5oXhjm5HisSccfo7RU-28" target="jqnOy9VGXWSSoWR_YB4v-4" edge="1">
          <mxGeometry x="-0.4894" relative="1" as="geometry">
            <mxPoint x="260" y="400" as="targetPoint" />
            <mxPoint as="offset" />
          </mxGeometry>
        </mxCell>
        <mxCell id="rk5oXhjm5HisSccfo7RU-29" style="edgeStyle=orthogonalEdgeStyle;rounded=1;orthogonalLoop=1;jettySize=auto;html=1;exitX=0.5;exitY=1;exitDx=0;exitDy=0;entryX=0.5;entryY=0;entryDx=0;entryDy=0;strokeWidth=2;sketch=1;curveFitting=1;jiggle=2;fillColor=#f5f5f5;strokeColor=#999999;" parent="1" source="rk5oXhjm5HisSccfo7RU-7" target="rk5oXhjm5HisSccfo7RU-28" edge="1">
          <mxGeometry relative="1" as="geometry" />
        </mxCell>
        <mxCell id="rk5oXhjm5HisSccfo7RU-7" value="powersave&lt;br&gt;---&lt;br&gt;Console.On = 0" style="shape=process;whiteSpace=wrap;html=1;backgroundOutline=1;fillColor=#1E2224;fontStyle=1;fontColor=#FFFFFF;strokeColor=#FFFFFF;sketch=1;curveFitting=1;jiggle=2;strokeWidth=2;gradientColor=none;fillStyle=zigzag;" parent="1" vertex="1">
          <mxGeometry x="460" y="400" width="200" height="80" as="geometry" />
        </mxCell>
        <mxCell id="jqnOy9VGXWSSoWR_YB4v-14" style="edgeStyle=orthogonalEdgeStyle;rounded=1;orthogonalLoop=1;jettySize=auto;html=1;entryX=0.75;entryY=0;entryDx=0;entryDy=0;strokeWidth=2;sketch=1;curveFitting=1;jiggle=2;fillColor=#f5f5f5;strokeColor=#999999;" parent="1" source="rk5oXhjm5HisSccfo7RU-11" target="jqnOy9VGXWSSoWR_YB4v-15" edge="1">
          <mxGeometry relative="1" as="geometry" />
        </mxCell>
        <mxCell id="rk5oXhjm5HisSccfo7RU-11" value="extopen&lt;br&gt;---&lt;br&gt;devVent = EXTVENT&lt;br&gt;devSensor = EXTSENSOR" style="shape=process;whiteSpace=wrap;html=1;backgroundOutline=1;fillColor=#1E2224;fontStyle=1;fontColor=#FFFFFF;strokeColor=#FFFFFF;sketch=1;curveFitting=1;jiggle=2;strokeWidth=2;gradientColor=none;fillStyle=zigzag;" parent="1" vertex="1">
          <mxGeometry x="1030" y="400" width="200" height="80" as="geometry" />
        </mxCell>
        <mxCell id="rk5oXhjm5HisSccfo7RU-17" value="pressure &amp;lt; minPressure" style="edgeStyle=orthogonalEdgeStyle;rounded=1;orthogonalLoop=1;jettySize=auto;html=1;exitX=0;exitY=0.5;exitDx=0;exitDy=0;entryX=1;entryY=0.5;entryDx=0;entryDy=0;strokeWidth=2;sketch=1;curveFitting=1;jiggle=2;fillColor=#f5f5f5;strokeColor=#999999;" parent="1" source="rk5oXhjm5HisSccfo7RU-15" target="rk5oXhjm5HisSccfo7RU-26" edge="1">
          <mxGeometry x="0.7531" y="-61" relative="1" as="geometry">
            <mxPoint x="775" y="910" as="targetPoint" />
            <mxPoint as="offset" />
          </mxGeometry>
        </mxCell>
        <mxCell id="jqnOy9VGXWSSoWR_YB4v-17" value="setting != lastSetting" style="edgeStyle=orthogonalEdgeStyle;rounded=1;orthogonalLoop=1;jettySize=auto;html=1;entryX=1;entryY=0.5;entryDx=0;entryDy=0;exitX=0.5;exitY=1;exitDx=0;exitDy=0;strokeWidth=2;sketch=1;curveFitting=1;jiggle=2;fillColor=#f5f5f5;strokeColor=#999999;" parent="1" source="rk5oXhjm5HisSccfo7RU-15" target="jqnOy9VGXWSSoWR_YB4v-26" edge="1">
          <mxGeometry x="-0.0127" relative="1" as="geometry">
            <Array as="points">
              <mxPoint x="1010" y="880" />
            </Array>
            <mxPoint as="offset" />
          </mxGeometry>
        </mxCell>
        <mxCell id="rk5oXhjm5HisSccfo7RU-15" value="vent&lt;br&gt;---&lt;br&gt;lastSetting = setting&lt;br&gt;setting = Console.Setting&lt;br&gt;db.Setting = setting&lt;br&gt;yield" style="shape=process;whiteSpace=wrap;html=1;backgroundOutline=1;fillColor=#1E2224;fontStyle=1;fontColor=#FFFFFF;strokeColor=#FFFFFF;sketch=1;curveFitting=1;jiggle=2;strokeWidth=2;gradientColor=none;fillStyle=zigzag;" parent="1" vertex="1">
          <mxGeometry x="910" y="700" width="200" height="120" as="geometry" />
        </mxCell>
        <mxCell id="rk5oXhjm5HisSccfo7RU-20" style="edgeStyle=orthogonalEdgeStyle;rounded=1;orthogonalLoop=1;jettySize=auto;html=1;entryX=0;entryY=0.5;entryDx=0;entryDy=0;sketch=1;exitX=1;exitY=0.5;exitDx=0;exitDy=0;strokeWidth=2;curveFitting=1;jiggle=2;fillColor=#f5f5f5;strokeColor=#999999;" parent="1" source="jqnOy9VGXWSSoWR_YB4v-4" target="rk5oXhjm5HisSccfo7RU-2" edge="1">
          <mxGeometry relative="1" as="geometry">
            <mxPoint x="320" y="300" as="sourcePoint" />
          </mxGeometry>
        </mxCell>
        <mxCell id="jqnOy9VGXWSSoWR_YB4v-2" style="edgeStyle=orthogonalEdgeStyle;rounded=1;orthogonalLoop=1;jettySize=auto;html=1;exitX=0.5;exitY=1;exitDx=0;exitDy=0;entryX=0.5;entryY=0;entryDx=0;entryDy=0;strokeWidth=2;sketch=1;curveFitting=1;jiggle=2;fillColor=#f5f5f5;strokeColor=#999999;" parent="1" source="rk5oXhjm5HisSccfo7RU-21" target="jqnOy9VGXWSSoWR_YB4v-1" edge="1">
          <mxGeometry relative="1" as="geometry" />
        </mxCell>
        <mxCell id="rk5oXhjm5HisSccfo7RU-21" value="" style="ellipse;whiteSpace=wrap;html=1;aspect=fixed;fillColor=#1E2224;fontStyle=1;fontColor=#FFFFFF;strokeColor=#FFFFFF;sketch=1;curveFitting=1;jiggle=2;strokeWidth=2;gradientColor=none;fillStyle=zigzag;" parent="1" vertex="1">
          <mxGeometry x="160" y="20" width="40" height="40" as="geometry" />
        </mxCell>
        <mxCell id="rk5oXhjm5HisSccfo7RU-27" style="edgeStyle=orthogonalEdgeStyle;rounded=1;orthogonalLoop=1;jettySize=auto;html=1;exitX=0;exitY=0.5;exitDx=0;exitDy=0;entryX=0.5;entryY=1;entryDx=0;entryDy=0;strokeWidth=2;sketch=1;curveFitting=1;jiggle=2;fillColor=#f5f5f5;strokeColor=#999999;" parent="1" source="rk5oXhjm5HisSccfo7RU-26" target="jqnOy9VGXWSSoWR_YB4v-4" edge="1">
          <mxGeometry relative="1" as="geometry">
            <mxPoint x="200" y="400" as="targetPoint" />
          </mxGeometry>
        </mxCell>
        <mxCell id="rk5oXhjm5HisSccfo7RU-26" value="ventoff&lt;br&gt;---&lt;br&gt;devVent.On = 0&lt;br&gt;devSensor.On = 0" style="shape=process;whiteSpace=wrap;html=1;backgroundOutline=1;fillColor=#1E2224;fontStyle=1;fontColor=#FFFFFF;strokeColor=#FFFFFF;sketch=1;curveFitting=1;jiggle=2;strokeWidth=2;gradientColor=none;fillStyle=zigzag;" parent="1" vertex="1">
          <mxGeometry x="630" y="721" width="200" height="80" as="geometry" />
        </mxCell>
        <mxCell id="jqnOy9VGXWSSoWR_YB4v-10" value="setting != lastSetting &amp;amp;&amp;amp; setting == 2 or 5" style="edgeStyle=orthogonalEdgeStyle;rounded=1;orthogonalLoop=1;jettySize=auto;html=1;entryX=0;entryY=0.75;entryDx=0;entryDy=0;strokeWidth=2;sketch=1;curveFitting=1;jiggle=2;fillColor=#f5f5f5;strokeColor=#999999;" parent="1" source="rk5oXhjm5HisSccfo7RU-28" target="jqnOy9VGXWSSoWR_YB4v-7" edge="1">
          <mxGeometry x="0.5686" relative="1" as="geometry">
            <Array as="points">
              <mxPoint x="680" y="560" />
              <mxPoint x="680" y="300" />
            </Array>
            <mxPoint as="offset" />
          </mxGeometry>
        </mxCell>
        <mxCell id="rk5oXhjm5HisSccfo7RU-28" value="standby&lt;br&gt;---&lt;br&gt;lastSetting = setting&lt;br&gt;setting = Console.Setting&lt;br&gt;yield" style="shape=process;whiteSpace=wrap;html=1;backgroundOutline=1;fillColor=#1E2224;fontStyle=1;fontColor=#FFFFFF;strokeColor=#FFFFFF;sketch=1;curveFitting=1;jiggle=2;strokeWidth=2;gradientColor=none;fillStyle=zigzag;" parent="1" vertex="1">
          <mxGeometry x="460" y="520" width="200" height="80" as="geometry" />
        </mxCell>
        <mxCell id="jqnOy9VGXWSSoWR_YB4v-3" style="edgeStyle=orthogonalEdgeStyle;rounded=1;orthogonalLoop=1;jettySize=auto;html=1;exitX=0.5;exitY=1;exitDx=0;exitDy=0;entryX=0.5;entryY=0;entryDx=0;entryDy=0;strokeWidth=2;sketch=1;curveFitting=1;jiggle=2;fillColor=#f5f5f5;strokeColor=#999999;" parent="1" source="jqnOy9VGXWSSoWR_YB4v-1" target="jqnOy9VGXWSSoWR_YB4v-4" edge="1">
          <mxGeometry relative="1" as="geometry">
            <mxPoint x="200" y="240" as="targetPoint" />
          </mxGeometry>
        </mxCell>
        <mxCell id="jqnOy9VGXWSSoWR_YB4v-1" value="init&lt;br&gt;---&lt;br&gt;setting = Console.Setting&lt;br&gt;minPressure = MAXPRESSURE * .9" style="shape=process;whiteSpace=wrap;html=1;backgroundOutline=1;fillColor=#1E2224;fontStyle=1;fontColor=#FFFFFF;strokeColor=#FFFFFF;sketch=1;curveFitting=1;jiggle=2;strokeWidth=2;gradientColor=none;fillStyle=zigzag;" parent="1" vertex="1">
          <mxGeometry x="80" y="80" width="200" height="80" as="geometry" />
        </mxCell>
        <mxCell id="jqnOy9VGXWSSoWR_YB4v-4" value="reset&lt;br&gt;---&lt;br&gt;ticks = 0" style="shape=process;whiteSpace=wrap;html=1;backgroundOutline=1;fillColor=#1E2224;fontStyle=1;fontColor=#FFFFFF;strokeColor=#FFFFFF;sketch=1;curveFitting=1;jiggle=2;strokeWidth=2;gradientColor=none;fillStyle=zigzag;" parent="1" vertex="1">
          <mxGeometry x="80" y="240" width="200" height="80" as="geometry" />
        </mxCell>
        <mxCell id="jqnOy9VGXWSSoWR_YB4v-6" value="setting == lastSetting" style="edgeStyle=orthogonalEdgeStyle;rounded=1;orthogonalLoop=1;jettySize=auto;html=1;exitX=0.75;exitY=0;exitDx=0;exitDy=0;entryX=0.25;entryY=0;entryDx=0;entryDy=0;strokeWidth=2;sketch=1;curveFitting=1;jiggle=2;fillColor=#f5f5f5;strokeColor=#999999;" parent="1" source="rk5oXhjm5HisSccfo7RU-2" target="rk5oXhjm5HisSccfo7RU-2" edge="1">
          <mxGeometry relative="1" as="geometry">
            <Array as="points">
              <mxPoint x="610" y="160" />
              <mxPoint x="510" y="160" />
            </Array>
            <mxPoint as="offset" />
          </mxGeometry>
        </mxCell>
        <mxCell id="jqnOy9VGXWSSoWR_YB4v-11" value="setting == 2" style="edgeStyle=orthogonalEdgeStyle;rounded=1;orthogonalLoop=1;jettySize=auto;html=1;exitX=0.25;exitY=1;exitDx=0;exitDy=0;entryX=0.5;entryY=0;entryDx=0;entryDy=0;strokeWidth=2;sketch=1;curveFitting=1;jiggle=2;fillColor=#f5f5f5;strokeColor=#999999;" parent="1" source="jqnOy9VGXWSSoWR_YB4v-7" target="rk5oXhjm5HisSccfo7RU-4" edge="1">
          <mxGeometry relative="1" as="geometry" />
        </mxCell>
        <mxCell id="jqnOy9VGXWSSoWR_YB4v-12" value="setting == 5" style="edgeStyle=orthogonalEdgeStyle;rounded=1;orthogonalLoop=1;jettySize=auto;html=1;exitX=0.75;exitY=1;exitDx=0;exitDy=0;entryX=0.5;entryY=0;entryDx=0;entryDy=0;strokeWidth=2;sketch=1;curveFitting=1;jiggle=2;fillColor=#f5f5f5;strokeColor=#999999;" parent="1" source="jqnOy9VGXWSSoWR_YB4v-7" target="rk5oXhjm5HisSccfo7RU-11" edge="1">
          <mxGeometry relative="1" as="geometry" />
        </mxCell>
        <mxCell id="jqnOy9VGXWSSoWR_YB4v-7" value="decide&lt;br&gt;---" style="shape=process;whiteSpace=wrap;html=1;backgroundOutline=1;fillColor=#1E2224;fontStyle=1;fontColor=#FFFFFF;strokeColor=#FFFFFF;sketch=1;curveFitting=1;jiggle=2;strokeWidth=2;gradientColor=none;fillStyle=zigzag;" parent="1" vertex="1">
          <mxGeometry x="910" y="240" width="200" height="80" as="geometry" />
        </mxCell>
        <mxCell id="jqnOy9VGXWSSoWR_YB4v-16" value="pressure &amp;lt; MAXPRESSURE" style="edgeStyle=orthogonalEdgeStyle;rounded=1;orthogonalLoop=1;jettySize=auto;html=1;exitX=0;exitY=0.5;exitDx=0;exitDy=0;entryX=0.5;entryY=0;entryDx=0;entryDy=0;strokeWidth=2;sketch=1;curveFitting=1;jiggle=2;fillColor=#f5f5f5;strokeColor=#999999;" parent="1" source="jqnOy9VGXWSSoWR_YB4v-15" edge="1" target="rk5oXhjm5HisSccfo7RU-26">
          <mxGeometry x="-0.402" relative="1" as="geometry">
            <mxPoint x="180" y="320" as="targetPoint" />
            <Array as="points">
              <mxPoint x="730" y="600" />
            </Array>
            <mxPoint as="offset" />
          </mxGeometry>
        </mxCell>
        <mxCell id="jqnOy9VGXWSSoWR_YB4v-20" value="pressure &amp;gt;= MAXPRESSURE" style="edgeStyle=orthogonalEdgeStyle;rounded=1;orthogonalLoop=1;jettySize=auto;html=1;entryX=0.5;entryY=0;entryDx=0;entryDy=0;strokeWidth=2;sketch=1;curveFitting=1;jiggle=2;fillColor=#f5f5f5;strokeColor=#999999;" parent="1" source="jqnOy9VGXWSSoWR_YB4v-15" target="jqnOy9VGXWSSoWR_YB4v-19" edge="1">
          <mxGeometry x="-0.3208" relative="1" as="geometry">
            <mxPoint as="offset" />
          </mxGeometry>
        </mxCell>
        <mxCell id="jqnOy9VGXWSSoWR_YB4v-15" value="checkpressure&lt;br&gt;---" style="shape=process;whiteSpace=wrap;html=1;backgroundOutline=1;fillColor=#1E2224;fontStyle=1;fontColor=#FFFFFF;strokeColor=#FFFFFF;sketch=1;curveFitting=1;jiggle=2;strokeWidth=2;gradientColor=none;fillStyle=zigzag;" parent="1" vertex="1">
          <mxGeometry x="910" y="560" width="200" height="80" as="geometry" />
        </mxCell>
        <mxCell id="jqnOy9VGXWSSoWR_YB4v-23" style="edgeStyle=orthogonalEdgeStyle;rounded=1;orthogonalLoop=1;jettySize=auto;html=1;entryX=1;entryY=0.5;entryDx=0;entryDy=0;strokeWidth=2;sketch=1;curveFitting=1;jiggle=2;fillColor=#f5f5f5;strokeColor=#999999;" parent="1" source="jqnOy9VGXWSSoWR_YB4v-19" target="rk5oXhjm5HisSccfo7RU-15" edge="1">
          <mxGeometry relative="1" as="geometry" />
        </mxCell>
        <mxCell id="jqnOy9VGXWSSoWR_YB4v-19" value="venton&lt;br&gt;---&lt;br&gt;devVent.Lock = 0&lt;br&gt;devVent.Mode =1&lt;br&gt;devVent.On = 1&lt;br&gt;devVent.PressureExternal = 150" style="shape=process;whiteSpace=wrap;html=1;backgroundOutline=1;fillColor=#1E2224;fontStyle=1;fontColor=#FFFFFF;strokeColor=#FFFFFF;sketch=1;curveFitting=1;jiggle=2;strokeWidth=2;gradientColor=none;fillStyle=zigzag;" parent="1" vertex="1">
          <mxGeometry x="1160" y="700" width="230" height="120" as="geometry" />
        </mxCell>
        <mxCell id="jqnOy9VGXWSSoWR_YB4v-24" value="lockvent&lt;br&gt;---&lt;br&gt;devVent.Lock = 1" style="shape=process;whiteSpace=wrap;html=1;backgroundOutline=1;fillColor=#1E2224;fontStyle=1;fontColor=#FFFFFF;strokeColor=#FFFFFF;sketch=1;curveFitting=1;jiggle=2;strokeWidth=2;gradientColor=none;fillStyle=zigzag;" parent="1" vertex="1">
          <mxGeometry x="300" y="721" width="200" height="80" as="geometry" />
        </mxCell>
        <mxCell id="jqnOy9VGXWSSoWR_YB4v-27" style="edgeStyle=orthogonalEdgeStyle;rounded=1;orthogonalLoop=1;jettySize=auto;html=1;entryX=0.5;entryY=1;entryDx=0;entryDy=0;strokeWidth=2;sketch=1;curveFitting=1;jiggle=2;fillColor=#f5f5f5;strokeColor=#999999;" parent="1" source="jqnOy9VGXWSSoWR_YB4v-26" target="jqnOy9VGXWSSoWR_YB4v-24" edge="1">
          <mxGeometry relative="1" as="geometry" />
        </mxCell>
        <mxCell id="jqnOy9VGXWSSoWR_YB4v-26" value="interrupt&lt;br&gt;---&lt;br&gt;devVent.Mode = 1" style="shape=process;whiteSpace=wrap;html=1;backgroundOutline=1;fillColor=#1E2224;fontStyle=1;fontColor=#FFFFFF;strokeColor=#FFFFFF;sketch=1;curveFitting=1;jiggle=2;strokeWidth=2;gradientColor=none;fillStyle=zigzag;" parent="1" vertex="1">
          <mxGeometry x="630" y="840" width="200" height="80" as="geometry" />
        </mxCell>
      </root>
    </mxGraphModel>
  </diagram>
</mxfile>
